<svg width="21" height="12" viewBox="0 0 21 12" fill="none" xmlns="http://www.w3.org/2000/svg">
<circle cx="9.65958" cy="2.08561" r="1.49771" fill="#FF0000"/>
<path fill-rule="evenodd" clip-rule="evenodd" d="M4.96801 6.25504C5.0382 6.0778 5.28906 6.0778 5.35925 6.25505L7.11548 10.69C7.1858 10.8676 7.43728 10.8672 7.50698 10.6893L9.89023 4.60945C9.94432 4.47145 9.84257 4.32227 9.69434 4.32227H9.01839C8.93182 4.32227 8.85409 4.37529 8.8225 4.45588L7.50698 7.81182C7.43728 7.98964 7.1858 7.99007 7.11548 7.8125L5.78602 4.4552C5.75424 4.37497 5.67669 4.32227 5.5904 4.32227H4.73686C4.65057 4.32227 4.57302 4.37497 4.54124 4.4552L3.21173 7.8125C3.14141 7.99008 2.88993 7.98964 2.82023 7.81182L1.50476 4.45588C1.47317 4.37529 1.39544 4.32227 1.30887 4.32227H0.63292C0.484693 4.32227 0.382938 4.47145 0.437033 4.60945L2.82023 10.6893C2.88993 10.8672 3.14141 10.8676 3.21173 10.69L4.96801 6.25504Z" fill="black"/>
<path fill-rule="evenodd" clip-rule="evenodd" d="M14.4033 5.05857C14.3484 5.19671 14.4502 5.34668 14.5988 5.34668H16.6932C16.8094 5.34668 16.9036 5.25248 16.9036 5.13628V4.53139C16.9036 4.41519 16.8094 4.32099 16.6932 4.32099H16.4191H14.8393C14.753 4.32099 14.6756 4.37357 14.6437 4.45368L14.4033 5.05857Z" fill="black"/>
<path fill-rule="evenodd" clip-rule="evenodd" d="M13.3135 7.82137C13.2591 7.95943 13.3608 8.10889 13.5092 8.10889H16.6813C16.7975 8.10889 16.8917 8.01469 16.8917 7.89849V7.29359C16.8917 7.17739 16.7975 7.08319 16.6813 7.08319H16.1754H13.7475C13.6611 7.08319 13.5834 7.13606 13.5517 7.21648L13.3135 7.82137Z" fill="black"/>
<path fill-rule="evenodd" clip-rule="evenodd" d="M12.2468 10.5327C12.1919 10.6708 12.2937 10.8208 12.4424 10.8208H16.6813C16.7975 10.8208 16.8917 10.7266 16.8917 10.6104V10.0055C16.8917 9.88931 16.7975 9.79511 16.6813 9.79511H16.1753H12.6828C12.5966 9.79511 12.5191 9.84769 12.4872 9.9278L12.2468 10.5327Z" fill="black"/>
<path fill-rule="evenodd" clip-rule="evenodd" d="M10.3925 5.05857C10.3376 5.19671 10.4393 5.34668 10.588 5.34668H13.4638C13.5491 5.34668 13.626 5.29511 13.6584 5.21614L13.9066 4.61124C13.9634 4.47279 13.8616 4.32098 13.7119 4.32098H12.3599H10.8284C10.7422 4.32098 10.6647 4.37356 10.6329 4.45367L10.3925 5.05857Z" fill="black"/>
<path fill-rule="evenodd" clip-rule="evenodd" d="M9.32293 7.84978C9.2699 7.9876 9.37162 8.13574 9.51929 8.13574H12.3826C12.4694 8.13574 12.5474 8.08236 12.5787 8.00137L12.8233 7.37017C12.8768 7.23228 12.775 7.08375 12.6271 7.08375H11.2804H9.76218C9.67514 7.08375 9.59708 7.13735 9.56582 7.21859L9.32293 7.84978Z" fill="black"/>
<path fill-rule="evenodd" clip-rule="evenodd" d="M8.27002 10.5358C8.21778 10.6734 8.31948 10.8208 8.46673 10.8208H11.3315C11.4184 10.8208 11.4963 10.7674 11.5277 10.6864L11.7723 10.0552C11.8257 9.91734 11.724 9.76881 11.5761 9.76881H10.2004H8.70622C8.61882 9.76881 8.54052 9.82285 8.50951 9.90457L8.27002 10.5358Z" fill="black"/>
<path fill-rule="evenodd" clip-rule="evenodd" d="M11.2303 10.6494C11.3392 10.7484 11.5136 10.7078 11.5676 10.5708L12.6178 7.90548C12.6496 7.82467 12.6285 7.73259 12.5647 7.6737L12.0671 7.21475C11.9584 7.11449 11.7829 7.15469 11.7287 7.29228L11.2244 8.5722L10.6766 9.96239C10.6446 10.0437 10.6661 10.1364 10.7308 10.1952L11.2303 10.6494Z" fill="black"/>
<path d="M17.6036 4.53514C17.6036 4.41894 17.6979 4.32408 17.8139 4.33108C18.63 4.38034 19.4024 4.71495 19.984 5.27607C20.6153 5.88519 20.97 6.71134 20.97 7.57277C20.97 8.4342 20.6153 9.26035 19.984 9.86948C19.4024 10.4306 18.63 10.7652 17.8139 10.8145C17.6979 10.8215 17.6036 10.7266 17.6036 10.6104L17.6036 10.0143C17.6036 9.89813 17.698 9.80489 17.8137 9.7947C18.35 9.74751 18.8549 9.5208 19.2387 9.15044C19.6724 8.73201 19.916 8.16451 19.916 7.57277C19.916 6.98103 19.6724 6.41353 19.2387 5.99511C18.8549 5.62475 18.35 5.39804 17.8137 5.35084C17.698 5.34066 17.6036 5.24742 17.6036 5.13122L17.6036 4.53514Z" fill="black"/>
</svg>
